<svg id="katman_1" data-name="katman 1" xmlns="http://www.w3.org/2000/svg" viewBox="0 0 1000 1000"><title>İcon</title><path d="M170.84,374.3c-30.46,100.92,42.62,200.09,151.5,203.5,1,0,2,0,3.07,0,31.64.53,63.23.76,94.86.86q46,.21,91.92,0c11.28,0,22.5,0,33.77-.05l98.46,98.46c-74.73-.29-149.42-.1-224.15-.19h-21.5q-30.4-.07-60.76-.19c-5.21-.05-10.47-.14-15.67-.33-18.66-.67-37.37-2.47-55.32-6.59-130.24-29.88-213.63-148.27-199.24-281C81.42,263,192.1,164.5,323,163.46c106.42-.81,212.83-.33,319.24-.29L740.08,261H707.26c-127,0-253.93-.33-380.9.19C253.24,261.54,191,307.57,170.84,374.3Z"/><path d="M259.89,739l97.91,97.84c106.39.06,212.83.52,319.22-.28,130.87-1,241.56-99.57,255.2-225.39,14.39-132.7-69-251.07-199.25-281-23.05-5.28-47.29-6.77-71-6.88-102.15-.52-204.24,0-306.39-.4L454,421.36c73.49-.23,147-.35,220.52.8,110.57,1.6,185.32,101.69,154.59,203.55C809,692.43,746.73,738.46,673.64,738.8c-127,.52-253.94.18-380.9.18Z"/><rect x="356.1" y="322.88" width="97.94" height="354.05"/><path d="M546,578.79q-46,.13-91.92,0V500a78.81,78.81,0,0,0,78.8,78.81Z"/><path d="M454,513.28q-.15-46,0-91.92h78.8a78.8,78.8,0,0,0-78.8,78.8Z"/></svg>